# xmcd CD database file
#
# Track frame offsets:
#	150
#	19082
#	38172
#	56147
#	75792
#	91935
#	111217
#	131515
#	151180
#
# Disc length: 2278 seconds
#
# Revision: 0
# Processed by: cddbd v1.4PL0 Copyright (c) Steve Scherf et al.
# Submitted via: CDex 1.50beta10
#
DISCID=6008e409
DTITLE=La Banda Del Swing - Esto se hizo pa'
DYEAR=1998
DGENRE=Merengue
TTITLE0=Esto se hizo pa'
TTITLE1=Acercate un poquito
TTITLE2=Solo se que morire
TTITLE3=Oh, cuanto te amo
TTITLE4=La trituradora
TTITLE5=Mon amour mi bien ma femme
TTITLE6=Con el alma hecha pedazos
TTITLE7=Merengue con swing
TTITLE8=Me dejaste solito, nena
EXTD=YEAR: 1998
EXTT0=
EXTT1=
EXTT2=
EXTT3=
EXTT4=
EXTT5=
EXTT6=
EXTT7=
EXTT8=
PLAYORDER=
